<svg width="163" height="33" viewBox="0 0 163 33" fill="none" xmlns="http://www.w3.org/2000/svg">
<path d="M16.2557 -0.000244141L19.9053 11.2322H31.7158L22.1609 18.1742L25.8106 29.4066L16.2557 22.4646L6.70084 29.4066L10.3505 18.1742L0.79561 11.2322H12.6061L16.2557 -0.000244141Z" fill="#030303"/>
<path d="M48.7674 -0.000244141L52.417 11.2322H64.2275L54.6726 18.1742L58.3223 29.4066L48.7674 22.4646L39.2126 29.4066L42.8622 18.1742L33.3073 11.2322H45.1178L48.7674 -0.000244141Z" fill="#030303"/>
<path d="M81.2782 -0.000244141L84.9278 11.2322H96.7382L87.1834 18.1742L90.833 29.4066L81.2782 22.4646L71.7233 29.4066L75.3729 18.1742L65.8181 11.2322H77.6285L81.2782 -0.000244141Z" fill="#030303"/>
<path d="M113.79 -0.000244141L117.44 11.2322H129.25L119.695 18.1742L123.345 29.4066L113.79 22.4646L104.235 29.4066L107.885 18.1742L98.3298 11.2322H110.14L113.79 -0.000244141Z" fill="#C4C4C4"/>
<path d="M146.302 -0.000244141L149.951 11.2322H161.762L152.207 18.1742L155.856 29.4066L146.302 22.4646L136.747 29.4066L140.396 18.1742L130.842 11.2322H142.652L146.302 -0.000244141Z" fill="#C4C4C4"/>
</svg>
