<?xml version="1.0" encoding="utf-8"?>
<!-- Generator: Adobe Illustrator 24.3.0, SVG Export Plug-In . SVG Version: 6.00 Build 0)  -->
<svg version="1.1" id="Icons" xmlns="http://www.w3.org/2000/svg" xmlns:xlink="http://www.w3.org/1999/xlink" x="0px" y="0px"
	 viewBox="0 0 468 468" style="enable-background:new 0 0 468 468;" xml:space="preserve">
<style type="text/css">
	.st0{fill:#D35E7A;}
</style>
<path class="st0" d="M73.8,425.3c-3.8,0-6.9-3.1-6.9-6.9c0-0.6,0.1-1.1,0.2-1.7l22-88.2c0.9-3.7,4.6-6,8.3-5.1
	c3.7,0.9,6,4.6,5.1,8.3v0.1l-22,88.2C79.7,423.1,77,425.3,73.8,425.3z"/>
<rect x="67" y="365" transform="matrix(0.2219 -0.9751 0.9751 0.2219 -352.1821 398.9469)" class="st0" width="13.7" height="110.2"/>
<rect x="170.6" y="18.1" transform="matrix(0.8916 -0.4529 0.4529 0.8916 -4.8554 86.1425)" class="st0" width="13.7" height="70.2"/>
<rect x="262.2" y="46.3" transform="matrix(0.4529 -0.8916 0.8916 0.4529 115.299 294.1241)" class="st0" width="70.2" height="13.7"/>
<rect x="229.5" y="5.4" class="st0" width="13.7" height="70.2"/>
<g>
	<path class="st0" d="M120.7,337.1c-21.1,1.1-42.4-4.8-59.8-19.1C30.6,293.1,17,251.5,25.4,213.3c1.9-8.8,5-17.3,9-25.4l44-91.4
		c1.4-2.9,4.7-4.5,7.9-3.7l128.9,31.3c3.2,0.8,5.4,3.6,5.3,6.9l-2.9,101.4c-0.4,15.1-3.4,29.7-9.7,43.5c-6.1,13.5-15,25.7-26,35.6
		C164.8,326.9,142.8,335.9,120.7,337.1z M88.4,107.6L46.9,194c-16.7,33.1-12.7,73.6,10.6,102.5c25.6,26.6,53.8,35.2,89.6,21.8
		c34-15,56.2-49.1,56.5-86.3l2.8-95.8L88.4,107.6z"/>
	
		<rect x="121.9" y="110.3" transform="matrix(0.2369 -0.9715 0.9715 0.2369 -93.9507 276.0296)" class="st0" width="13.7" height="175.1"/>
</g>
<path class="st0" d="M393.8,420l-22-88.2v-0.1c-0.9-3.7,1.4-7.5,5.1-8.3c3.7-0.9,7.5,1.4,8.3,5.1l22,88.2c0.1,0.5,0.2,1.1,0.2,1.7
	c0,3.8-3.1,6.9-6.9,6.9C397.4,425.3,394.6,423.1,393.8,420z"/>
<rect x="345.5" y="413.3" transform="matrix(0.9751 -0.2219 0.2219 0.9751 -83.2446 99.366)" class="st0" width="110.2" height="13.7"/>
<g>
	<path class="st0" d="M292.6,311.5c-11-9.9-19.9-22.1-26-35.6c-6.2-13.8-9.2-28.4-9.7-43.5L254,131c-0.1-3.3,2.1-6.1,5.3-6.9
		l128.9-31.3c3.2-0.8,6.5,0.8,7.9,3.7l44,91.4c4,8,7.1,16.6,9,25.4c8.4,38.1-5.2,79.8-35.5,104.7c-17.4,14.3-38.7,20.2-59.8,19.1
		C331.5,335.9,309.6,326.9,292.6,311.5z M268,136.2l2.8,95.8c0.4,37.1,22.5,71.2,56.5,86.3c35.8,13.4,64,4.8,89.6-21.8
		c23.3-28.9,27.3-69.4,10.6-102.5L386,107.6L268,136.2z"/>
	
		<rect x="258.1" y="191" transform="matrix(0.9715 -0.2369 0.2369 0.9715 -37.0285 87.5178)" class="st0" width="175.1" height="13.7"/>
</g>
</svg>
