<svg id="Icons" height="512" viewBox="0 0 74 74" width="512" xmlns="http://www.w3.org/2000/svg"><path d="m56.477 51.621a15.34 15.34 0 0 1 -15.385-15.292l-.5-14.658a1 1 0 0 1 .758-1l21.408-5.32a1 1 0 0 1 1.14.533l6.423 13.185a15.512 15.512 0 0 1 -13.844 22.552zm-13.856-29.208.469 13.849a13.484 13.484 0 1 0 25.435-6.321l-6.068-12.458z"/><path d="m62.331 60.355a1 1 0 0 1 -.97-.758l-2.28-9.176a1 1 0 1 1 1.941-.482l2.278 9.175a1 1 0 0 1 -.972 1.241z"/><path d="m56.821 68.007a1 1 0 0 1 -.811-1.585l5.511-7.651a1 1 0 0 1 1.254-.312l8.452 4.182a1 1 0 0 1 -.2 1.867l-13.962 3.47a1.045 1.045 0 0 1 -.244.029zm5.827-7.38-3.421 4.752 8.673-2.155z"/><path d="m42.1 37.452a1 1 0 0 1 -.241-1.971l27.385-6.805a1 1 0 0 1 .483 1.942l-27.383 6.805a1.007 1.007 0 0 1 -.244.029z"/><path d="m17.523 51.621a15.814 15.814 0 0 1 -3.816-.47 15.625 15.625 0 0 1 -8.288-5.189 15.679 15.679 0 0 1 -1.743-16.9l6.424-13.182a1 1 0 0 1 1.14-.533l21.408 5.32a1 1 0 0 1 .758 1l-.5 14.658a15.675 15.675 0 0 1 -9.449 14.116 15.61 15.61 0 0 1 -5.934 1.18zm-5.98-34.138-6.068 12.458a13.676 13.676 0 0 0 1.481 14.741 13.746 13.746 0 0 0 15.744 3.918 13.675 13.675 0 0 0 8.21-12.338l.469-13.849z"/><path d="m11.669 60.355a1 1 0 0 1 -.972-1.241l2.281-9.175a1 1 0 1 1 1.941.482l-2.28 9.179a1 1 0 0 1 -.97.755z"/><path d="m17.179 68.007a1.045 1.045 0 0 1 -.241-.029l-13.962-3.47a1 1 0 0 1 -.2-1.867l8.452-4.182a1 1 0 0 1 1.254.312l5.511 7.651a1 1 0 0 1 -.811 1.585zm-11.079-4.783 8.669 2.155-3.421-4.752z"/><path d="m31.9 37.452a1.007 1.007 0 0 1 -.242-.029l-27.387-6.805a1 1 0 0 1 .483-1.942l27.385 6.805a1 1 0 0 1 -.241 1.971z"/><path d="m37 13.822a1 1 0 0 1 -1-1v-5.829a1 1 0 0 1 2 0v5.829a1 1 0 0 1 -1 1z"/><path d="m43.991 14.987a1 1 0 0 1 -.885-1.465l3.059-5.828a1 1 0 0 1 1.772.93l-3.059 5.828a1 1 0 0 1 -.887.535z"/><path d="m30.009 14.987a1 1 0 0 1 -.887-.535l-3.059-5.828a1 1 0 1 1 1.772-.93l3.059 5.828a1 1 0 0 1 -.885 1.465z"/></svg>