<svg width="96" height="19" viewBox="0 0 96 19" fill="none" xmlns="http://www.w3.org/2000/svg">
<path d="M17.2006 3.70296C16.5331 1.94775 16.1129 1.45333 14.2588 1.15667V0.860016H22.3427V1.15667C19.9941 1.28028 19.648 1.87359 20.1672 3.25798L24.9301 14.9264H25.0538L28.9844 4.61765C29.8002 2.4669 29.4541 1.57693 27.2292 1.15667V0.860016H32.9893V1.15667C31.2588 1.52749 30.5419 2.36801 29.4047 5.23568L24.1885 18.5357H23.3233L17.2006 3.70296Z" fill="black"/>
<path d="M30.5259 18.2061C31.9598 18.1814 31.7812 18.0083 31.7812 17.2667V8.76256C31.7812 8.02092 31.4104 7.55122 29.9766 7.5265V7.22984L34.377 7.05679V17.2667C34.377 18.0083 34.0995 18.1814 35.6322 18.2061V18.5028H30.5259V18.2061Z" fill="black"/>
<path d="M36.5657 18.2061C37.9748 18.1814 38.0462 18.0084 38.0462 17.2667V8.7626C38.0462 8.02096 37.7001 7.55126 36.291 7.52653V7.22988L40.5925 7.05683V9.72673C41.705 7.97152 43.213 6.98267 44.8693 6.98267C46.8223 6.98267 47.91 8.16929 47.91 10.4436V17.2667C47.91 18.0084 47.9567 18.1814 49.3906 18.2061V18.5028H44.1057V18.2061C45.2429 18.1814 45.3143 18.0084 45.3143 17.2667V10.9134C45.3143 9.13342 44.7951 8.24345 43.3119 8.24345C42.2488 8.24345 41.3094 9.05925 40.642 10.32V17.2667C40.642 18.0084 40.7134 18.1814 41.8258 18.2061V18.5028H36.5657V18.2061V18.2061Z" fill="black"/>
<path d="M49.7598 12.9405C49.7598 9.40533 52.3308 6.90848 55.3468 6.90848C58.6594 6.90848 60.3652 9.23228 60.1674 12.1741C60.1674 12.1741 52.5904 14.535 52.578 14.5391C52.5821 14.5377 52.5876 14.8028 52.8966 15.3659C53.6245 16.6912 54.921 17.7117 56.4592 17.7117C58.0167 17.7117 58.9314 16.9206 59.9449 15.6104L60.2169 15.8081C59.228 17.415 57.8189 18.7005 55.3468 18.7005C52.0341 18.7005 49.7598 16.352 49.7598 12.9405ZM52.4159 13.7522L57.3986 11.7291C57.6459 9.00979 57.0278 7.37818 55.1737 7.37818C53.6905 7.37818 51.8267 9.96156 52.4159 13.7522Z" fill="black"/>
<path d="M61.0686 18.2061C62.4777 18.1814 62.5492 18.0084 62.5492 17.2667V8.7626C62.5492 8.02096 62.2031 7.55126 60.7939 7.52654V7.22988L65.0955 7.05683V9.55368C65.9607 7.9468 67.172 6.95795 68.4328 6.95795C69.7925 6.95795 70.4105 7.79847 70.4105 8.7626C70.4105 9.70201 69.7925 10.3695 68.9025 10.3695C67.9878 10.3695 67.3451 9.72673 67.3451 8.83676C67.3451 8.58955 67.4193 8.26817 67.4934 8.0704C66.5293 8.19401 65.8618 8.91093 65.1449 10.1223V17.2667C65.1449 18.0084 65.3399 18.1567 67.021 18.2061V18.5028H61.0686V18.2061V18.2061Z" fill="black"/>
<path d="M71.4546 18.2061C72.8885 18.1814 72.7099 18.0083 72.7099 17.2667V8.76256C72.7099 8.02092 72.3391 7.55122 70.9053 7.5265V7.22984L75.3057 7.05679V17.2667C75.3057 18.0083 75.0282 18.1814 76.561 18.2061V18.5028H71.4546V18.2061Z" fill="black"/>
<path d="M77.8984 14.5968H78.2445C79.8267 17.3409 80.7661 18.2308 82.546 18.2308C83.9304 18.2308 84.6721 17.2914 84.6721 16.3273C84.6721 15.1901 83.9799 14.5721 81.5325 13.8799C79.0109 13.163 77.9479 12.3719 77.9479 10.5425C77.9479 8.41648 79.5795 6.90848 82.1258 6.90848C83.2135 6.90848 84.2518 7.2793 84.9193 7.67484L85.5373 6.90848H85.8092V10.5919H85.4632C84.0293 8.26815 83.3124 7.37818 81.8044 7.37818C80.6672 7.37818 79.802 8.14454 79.802 9.28172C79.802 10.3447 80.7908 10.8886 82.6944 11.383C85.2159 12.0752 86.4273 12.9652 86.4273 14.8935C86.4273 16.97 84.944 18.7005 82.2494 18.7005C81.3347 18.7005 79.7278 18.305 78.9862 17.8106L78.1704 18.7005H77.8984V14.5968V14.5968Z" fill="black"/>
<path d="M89.0969 15.4621V7.99623H86.7979V7.67485L89.0969 7.13098V3.99138L91.6927 3.05197V7.20515H95.2031V7.97151H91.6927V15.6846C91.6927 17.1678 92.1129 17.7364 93.1265 17.7364C93.8434 17.7364 94.5603 17.242 95.2031 16.0801L95.4997 16.2779C94.7087 17.8847 93.6209 18.75 92.0635 18.75C90.1352 18.7486 89.0969 17.7364 89.0969 15.4621Z" fill="black"/>
<path d="M31.7178 4.25368C31.7178 3.44475 32.2301 2.89264 32.9992 2.89264C33.7875 2.89264 34.3011 3.40492 34.3011 4.19463C34.3011 4.98296 33.7889 5.53507 32.9992 5.53507C32.2301 5.53507 31.7178 5.04202 31.7178 4.25368Z" fill="black"/>
<path d="M72.5176 4.25368C72.5176 3.44475 73.0299 2.89264 73.799 2.89264C74.5873 2.89264 75.101 3.40492 75.101 4.19463C75.101 4.98296 74.5887 5.53507 73.799 5.53507C73.0299 5.53507 72.5176 5.04202 72.5176 4.25368Z" fill="black"/>
<path d="M9.16504 11.9887C9.16504 10.8749 9.97535 10.0879 10.9257 10.0879C11.9695 10.0879 12.5065 10.8199 12.4447 11.747C12.4447 11.747 10.0578 12.4914 10.0536 12.4928C10.055 12.4928 10.0564 12.5752 10.1539 12.7537C10.3832 13.1712 10.7925 13.4926 11.276 13.4926C11.7663 13.4926 12.0547 13.244 12.3747 12.8306L12.4598 12.8924C12.1481 13.3992 11.7045 13.8044 10.9257 13.8044C9.88058 13.803 9.16504 13.0627 9.16504 11.9887ZM10.0014 12.2442L11.5712 11.6069C11.6495 10.7499 11.4545 10.2362 10.8708 10.2362C10.4025 10.2362 9.81603 11.0493 10.0014 12.2442Z" fill="black"/>
<path d="M1.17124 13.63C1.86344 13.6066 2.09692 13.4349 2.09692 13.1163V8.87248H1.79339C1.21794 8.87248 0.97347 9.21034 0.483164 10.2294L0.374665 10.2212L0.362305 8.72415H4.74347L4.72699 10.2212L4.61849 10.2294C4.13642 9.24879 3.89608 8.87248 3.30414 8.87248H3.00062V13.1163C3.00062 13.4349 3.23409 13.6066 3.92629 13.63V13.7316H1.17124V13.63Z" fill="black"/>
<path d="M4.88281 13.6382C5.33466 13.6299 5.43492 13.5764 5.43492 13.3429V9.23091C5.43492 8.96584 5.4514 8.8491 4.90753 8.834V8.7406L6.2521 8.69391V10.9683C6.60232 10.4162 7.06927 10.1044 7.59117 10.1044C8.20645 10.1044 8.54843 10.478 8.54843 11.1935V13.3415C8.54843 13.575 8.65006 13.6299 9.10878 13.6368V13.7302H7.26292V13.6368C7.62825 13.6286 7.72988 13.575 7.72988 13.3415V11.3583C7.72988 10.798 7.55821 10.5027 7.09125 10.5027C6.75614 10.5027 6.4691 10.7595 6.25072 11.1564V13.3429C6.25072 13.5764 6.35922 13.6313 6.71768 13.6382V13.7316H4.88281V13.6382Z" fill="black"/>
<path d="M12.8139 7.17493H0V7.38506H12.8139V7.17493Z" fill="black"/>
<path d="M12.8139 15.2643H0V15.4744H12.8139V15.2643Z" fill="black"/>
</svg>
