<svg width="341" height="124" viewBox="0 0 341 124" fill="none" xmlns="http://www.w3.org/2000/svg">
<path d="M13.2682 60.5461C10.4753 53.202 8.71688 51.1332 0.958984 49.8919V48.6507H34.7834V49.8919C24.9567 50.4091 23.5086 52.8917 25.6808 58.6842L45.61 107.502H46.1272L62.5739 64.3676C65.9874 55.3684 64.5393 51.6446 55.2298 49.8862V48.6449H79.331V49.8862C72.0903 51.4378 69.0906 54.9547 64.3324 66.9536L42.5068 122.604H38.8865L13.2682 60.5461Z" fill="white"/>
<path d="M69.0223 121.224C75.0217 121.121 74.2747 120.397 74.2747 117.294V81.7108C74.2747 78.6077 72.7231 76.6423 66.7236 76.5389V75.2976L85.1357 74.5735V117.294C85.1357 120.397 83.9749 121.121 90.3881 121.224V122.466H69.0223V121.224Z" fill="white"/>
<path d="M94.2958 121.224C100.192 121.121 100.491 120.397 100.491 117.294V81.7108C100.491 78.6076 99.0425 76.6423 93.1465 76.5389V75.2976L111.145 74.5735V85.7449C115.8 78.4008 122.109 74.2632 129.04 74.2632C137.211 74.2632 141.763 79.2283 141.763 88.7446V117.294C141.763 120.397 141.958 121.121 147.957 121.224V122.466H125.845V121.224C130.603 121.121 130.902 120.397 130.902 117.294V90.71C130.902 83.2624 128.729 79.5386 122.523 79.5386C118.075 79.5386 114.145 82.9521 111.352 88.2274V117.294C111.352 120.397 111.651 121.121 116.305 121.224V122.466H94.2958V121.224V121.224Z" fill="white"/>
<path d="M149.502 99.1977C149.502 84.406 160.26 73.9587 172.879 73.9587C186.74 73.9587 193.877 83.6819 193.05 95.9911C193.05 95.9911 161.346 105.869 161.294 105.887C161.311 105.881 161.334 106.99 162.627 109.346C165.673 114.892 171.098 119.161 177.534 119.161C184.05 119.161 187.878 115.851 192.119 110.369L193.256 111.197C189.119 117.92 183.223 123.299 172.879 123.299C159.018 123.293 149.502 113.466 149.502 99.1977ZM160.616 102.588L181.464 94.1235C182.499 82.7452 179.913 75.9183 172.155 75.9183C165.949 75.924 158.151 86.7276 160.616 102.588Z" fill="white"/>
<path d="M196.82 121.224C202.716 121.121 203.015 120.397 203.015 117.294V81.7108C203.015 78.6077 201.567 76.6423 195.671 76.5389V75.2976L213.669 74.5735V85.0208C217.29 78.2973 222.358 74.1598 227.633 74.1598C233.323 74.1598 235.909 77.6767 235.909 81.7108C235.909 85.6415 233.323 88.4343 229.599 88.4343C225.772 88.4343 223.082 85.7449 223.082 82.0211C223.082 80.9867 223.392 79.642 223.703 78.8145C219.669 79.3317 216.876 82.3314 213.876 87.3999V117.294C213.876 120.397 214.692 121.017 221.726 121.224V122.466H196.82V121.224V121.224Z" fill="white"/>
<path d="M240.275 121.224C246.275 121.121 245.528 120.397 245.528 117.294V81.7108C245.528 78.6077 243.976 76.6423 237.977 76.5389V75.2976L256.389 74.5735V117.294C256.389 120.397 255.228 121.121 261.641 121.224V122.466H240.275V121.224Z" fill="white"/>
<path d="M267.239 106.128H268.687C275.307 117.61 279.238 121.334 286.686 121.334C292.478 121.334 295.581 117.403 295.581 113.369C295.581 108.611 292.685 106.025 282.445 103.128C271.894 100.129 267.446 96.8186 267.446 89.1642C267.446 80.2684 274.273 73.9587 284.927 73.9587C289.479 73.9587 293.823 75.5103 296.616 77.1653L299.202 73.9587H300.34V89.371H298.891C292.892 79.6478 289.892 75.924 283.583 75.924C278.824 75.924 275.204 79.1306 275.204 83.8888C275.204 88.3366 279.342 90.6123 287.306 92.6811C297.857 95.5774 302.926 99.3011 302.926 107.369C302.926 116.058 296.719 123.299 285.444 123.299C281.617 123.299 274.894 121.644 271.791 119.575L268.377 123.299H267.239V106.128V106.128Z" fill="white"/>
<path d="M314.096 109.743V78.5042H304.477V77.1595L314.096 74.8839V61.7472L324.957 57.8165V75.1942H339.646V78.4008H324.957V110.674C324.957 116.88 326.716 119.259 330.957 119.259C333.957 119.259 336.956 117.19 339.646 112.329L340.887 113.156C337.577 119.88 333.026 123.5 326.509 123.5C318.441 123.5 314.096 119.259 314.096 109.743Z" fill="white"/>
<path d="M74.0098 62.8448C74.0098 59.46 76.1532 57.1499 79.3713 57.1499C82.6699 57.1499 84.8191 59.2934 84.8191 62.5977C84.8191 65.8962 82.6756 68.2063 79.3713 68.2063C76.1532 68.2121 74.0098 66.149 74.0098 62.8448Z" fill="white"/>
<path d="M244.724 62.8448C244.724 59.46 246.867 57.1499 250.085 57.1499C253.384 57.1499 255.533 59.2934 255.533 62.5977C255.533 65.8962 253.389 68.2063 250.085 68.2063C246.867 68.2121 244.724 66.149 244.724 62.8448Z" fill="white"/>
<path d="M42.7246 20.6418C42.7246 15.9813 46.1151 12.6885 50.0917 12.6885C54.4591 12.6885 56.7061 15.7515 56.4475 19.6304C56.4475 19.6304 46.4599 22.7451 46.4427 22.7508C46.4484 22.7508 46.4541 23.0956 46.8622 23.8427C47.8218 25.5896 49.5343 26.9343 51.5571 26.9343C53.6087 26.9343 54.8154 25.8942 56.1544 24.1645L56.5107 24.4231C55.2062 26.5436 53.3501 28.2388 50.0917 28.2388C45.7243 28.2331 42.7246 25.1357 42.7246 20.6418ZM46.2243 21.7107L52.7926 19.0443C53.1202 15.4584 52.3042 13.3092 49.8619 13.3092C47.908 13.3092 45.4485 16.7112 46.2243 21.7107Z" fill="white"/>
<path d="M9.28025 27.509C12.1765 27.4113 13.1535 26.6929 13.1535 25.3597V7.60278H11.8835C9.47563 7.60278 8.45274 9.01644 6.40121 13.2804L5.94723 13.2459L5.89551 6.98215H24.2271L24.1582 13.2459L23.7042 13.2804C21.6871 9.17734 20.6815 7.60278 18.2047 7.60278H16.9347V25.3597C16.9347 26.6929 17.9116 27.4113 20.8079 27.509V27.9342H9.28025V27.509Z" fill="white"/>
<path d="M24.8076 27.5434C26.6982 27.509 27.1177 27.2848 27.1177 26.3079V9.10263C27.1177 7.99354 27.1867 7.50508 24.9111 7.44186V7.0511L30.537 6.85571V16.3721C32.0023 14.0619 33.9562 12.7575 36.1399 12.7575C38.7144 12.7575 40.1453 14.3205 40.1453 17.3145V26.3022C40.1453 27.2791 40.5705 27.509 42.4899 27.5377V27.9285H34.7722V27.5377C36.3008 27.5032 36.726 27.2791 36.726 26.3022V18.0041C36.726 15.6595 36.0077 14.424 34.0539 14.424C32.6517 14.424 31.4507 15.4986 30.537 17.1593V26.3079C30.537 27.2848 30.9909 27.5147 32.4908 27.5434V27.9342H24.8076V27.5434Z" fill="white"/>
<path d="M57.9936 0.5H4.37793V1.37923H57.9936V0.5Z" fill="white"/>
<path d="M57.9936 34.3474H4.37793V35.2266H57.9936V34.3474Z" fill="white"/>
</svg>
